<svg width="20" height="20" viewBox="0 0 20 20" fill="none" xmlns="http://www.w3.org/2000/svg">
<path d="M3.36087 3.47738C4.88771 1.26762 7.30751 0 9.99935 0C12.6912 0 15.111 1.26762 16.6378 3.47738C18.1572 5.67598 18.508 8.45945 17.5781 10.9186C17.3294 11.5902 16.9341 12.2427 16.4059 12.8541L10.5317 19.7538C10.3989 19.91 10.2042 20 9.99935 20C9.79447 20 9.59982 19.91 9.46697 19.7538L3.59447 12.8559C3.06392 12.241 2.66908 11.5893 2.42244 10.9231C1.49072 8.45945 1.84154 5.67598 3.36087 3.47738ZM3.73197 10.4333C3.92216 10.9473 4.23267 11.4555 4.65435 11.9443C4.65552 11.9454 4.65669 11.9466 4.65763 11.948L9.99935 18.2221L15.3443 11.9441C15.7658 11.4557 16.0763 10.9476 16.2684 10.4287C17.0374 8.39488 16.7455 6.09348 15.4875 4.27273C14.2255 2.44617 12.225 1.39859 9.99935 1.39859C7.77372 1.39859 5.77349 2.44613 4.51146 4.27273C3.25318 6.09348 2.96111 8.39488 3.73197 10.4333Z" fill="#636363"/>
<path d="M10.0003 4.14917C12.1595 4.14917 13.9164 5.90581 13.9164 8.06526C13.9164 10.2247 12.1598 11.9814 10.0003 11.9814C7.84085 11.9814 6.08421 10.2247 6.08421 8.06526C6.08421 5.90604 7.84108 4.14917 10.0003 4.14917ZM10.0003 10.5827C11.3884 10.5827 12.5178 9.45335 12.5178 8.06522C12.5178 6.6771 11.3884 5.54772 10.0003 5.54772C8.61218 5.54772 7.4828 6.6771 7.4828 8.06522C7.4828 9.45335 8.61218 10.5827 10.0003 10.5827Z" fill="#636363"/>
</svg>
