<svg width="20" height="20" viewBox="0 0 20 20" fill="none" xmlns="http://www.w3.org/2000/svg">
<g clip-path="url(#clip0)">
<path d="M12.6662 0C12.4822 0 12.3329 0.149336 12.3329 0.33332C12.3329 0.517304 12.4822 0.666639 12.6662 0.666639C16.3422 0.666639 19.3329 3.6573 19.3329 7.33331C19.3329 7.51729 19.4822 7.66663 19.6662 7.66663C19.8505 7.66663 19.9995 7.51729 19.9995 7.33331C19.9995 3.28968 16.7099 0 12.6662 0Z" fill="black"/>
<path d="M12.6662 2C12.4822 2 12.3329 2.14934 12.3329 2.33332C12.3329 2.5173 12.4822 2.66664 12.6662 2.66664C15.2395 2.66664 17.3329 4.75996 17.3329 7.33331C17.3329 7.51729 17.4822 7.66663 17.6662 7.66663C17.8505 7.66663 17.9995 7.51729 17.9995 7.33331C17.9995 4.39269 15.6072 2 12.6662 2Z" fill="black"/>
<path d="M12.6662 4.00006C12.4822 4.00006 12.3329 4.1494 12.3329 4.33338C12.3329 4.51736 12.4822 4.6667 12.6662 4.6667C14.1366 4.6667 15.3329 5.86303 15.3329 7.33337C15.3329 7.51736 15.4822 7.66669 15.6662 7.66669C15.8505 7.66669 15.9995 7.51736 15.9995 7.33337C15.9995 5.49541 14.5042 4.00006 12.6662 4.00006Z" fill="black"/>
<path d="M18.0376 12.5084C17.1306 12.3891 16.2363 12.1664 15.3796 11.8474C14.55 11.5364 13.6073 11.737 12.9759 12.3601L11.9223 13.4114C9.71293 12.1087 7.86727 10.2667 6.56161 8.06174L7.61594 7.00975C8.23926 6.38077 8.44059 5.43909 8.12895 4.61144C7.8093 3.75613 7.58629 2.86378 7.46629 1.95543C7.30661 0.829412 6.33161 -0.00425806 5.19196 7.78705e-05H2.27564C2.20763 7.78705e-05 2.13962 0.00339818 2.07232 0.00941379C1.46662 0.0641012 0.918297 0.351093 0.528611 0.817108C0.138963 1.28343 -0.0457242 1.87343 0.00962724 2.48375C0.332634 5.51975 1.38263 8.47873 3.04431 11.0387C4.55298 13.4081 6.60532 15.4564 8.97695 16.9604C11.5323 18.6144 14.4833 19.6621 17.5176 19.9911C17.5863 19.9971 17.6553 20 17.7246 20C17.7266 20 17.7286 20 17.7309 20C18.9869 19.9947 20.0042 18.9707 19.9992 17.7184V14.812C20.0256 13.6597 19.1842 12.6697 18.0376 12.5084ZM19.3326 14.8C19.3326 14.8027 19.3326 14.8057 19.3326 14.8084V17.72C19.3359 18.6061 18.6163 19.33 17.7286 19.3337C17.6766 19.3317 17.6266 19.3317 17.5826 19.3277C14.658 19.0104 11.8073 17.9984 9.33629 16.399C7.0443 14.9454 5.06298 12.968 3.60497 10.678C1.99861 8.20342 0.984625 5.34542 0.672946 2.41843C0.634275 1.99109 0.764626 1.57445 1.04029 1.24476C1.31595 0.915076 1.70361 0.712108 2.13228 0.673436C2.17994 0.6691 2.22763 0.666756 2.2756 0.666756H5.19493C5.20028 0.666756 5.20559 0.666756 5.21095 0.666756C6.00962 0.666756 6.69395 1.25843 6.80559 2.04574C6.93192 3.00074 7.16692 3.94273 7.50457 4.84573C7.72493 5.43104 7.58258 6.09639 7.14356 6.5394L5.90891 7.77139C5.80223 7.87772 5.78024 8.04174 5.85458 8.17241C7.26723 10.6524 9.32758 12.7084 11.8119 14.1181C11.9426 14.1924 12.1059 14.1697 12.2119 14.0641L13.4452 12.8334C13.8909 12.3938 14.5585 12.2521 15.1459 12.4721C16.0499 12.8088 16.9935 13.0438 17.9472 13.1691C18.7572 13.2831 19.3529 13.9841 19.3326 14.8Z" fill="black"/>
<path d="M5.00004 1.33331H2.27571C2.2477 1.33331 2.22004 1.33464 2.19239 1.3373C1.85274 1.36796 1.64504 1.56062 1.55172 1.6723C1.47672 1.76195 1.3054 2.00663 1.3354 2.34265C1.46141 3.52499 1.68938 4.6753 2.01372 5.76198C2.05704 5.90631 2.18938 5.99998 2.33305 5.99998C2.36473 5.99998 2.39672 5.99565 2.42871 5.986C2.60504 5.93334 2.70539 5.74768 2.6527 5.57135C2.34004 4.52401 2.12004 3.41401 1.99903 2.27769C1.99137 2.19304 2.04637 2.12003 2.06336 2.09937C2.09071 2.06671 2.15168 2.01038 2.27571 2.00003H4.99937C4.99973 2.00003 4.99972 2.00003 4.99972 2.00003C5.18371 2.00003 5.33304 1.85105 5.33304 1.66702C5.33336 1.48296 5.18402 1.33331 5.00004 1.33331Z" fill="black"/>
<path d="M18.333 14.6667C18.149 14.6667 17.9997 14.816 17.9997 15L17.9994 17.7196C17.9997 17.7946 17.971 17.8653 17.9187 17.918C17.8663 17.9706 17.797 17.9996 17.731 18L17.7004 17.9993C16.5614 17.8756 15.4607 17.6563 14.429 17.3473C14.2534 17.2943 14.0671 17.3946 14.014 17.571C13.961 17.7473 14.0614 17.933 14.2377 17.986C15.3081 18.3066 16.449 18.534 17.6344 18.6627C17.6617 18.6653 17.7174 18.6666 17.7254 18.6666C17.9777 18.6656 18.2144 18.5666 18.3921 18.3877C18.5697 18.2083 18.6671 17.9703 18.6661 17.7183L18.6664 15C18.6664 14.816 18.517 14.6667 18.333 14.6667Z" fill="black"/>
</g>
<defs>
<clipPath id="clip0">
<rect width="20" height="20" fill="white"/>
</clipPath>
</defs>
</svg>
