<svg width="20" height="20" viewBox="0 0 20 20" fill="none" xmlns="http://www.w3.org/2000/svg">
<path d="M18.3333 3.33331H1.66667C0.746667 3.3344 0.00108333 4.07998 0 4.99998V15C0.00108333 15.92 0.746667 16.6656 1.66667 16.6666H18.3333C19.2533 16.6656 19.9989 15.92 20 15V4.99998C19.9989 4.07998 19.2533 3.3344 18.3333 3.33331ZM19.3333 15C19.3333 15.5523 18.8856 16 18.3333 16H1.66667C1.11437 16 0.666667 15.5523 0.666667 15V4.99998C0.666667 4.44769 1.11437 3.99998 1.66667 3.99998H18.3333C18.8856 3.99998 19.3333 4.44769 19.3333 4.99998V15Z" fill="black"/>
<path d="M18.6191 4.82834C18.5242 4.67059 18.3195 4.61955 18.1617 4.71434L10.8574 9.09667C10.33 9.41434 9.67016 9.41434 9.14274 9.09667L1.83841 4.71434C1.67891 4.62238 1.47508 4.67713 1.38312 4.83659C1.29349 4.992 1.34295 5.1905 1.49508 5.28567L8.80008 9.66834C9.53849 10.1123 10.4617 10.1123 11.2001 9.66834L18.5051 5.28567C18.6628 5.19084 18.7139 4.98613 18.6191 4.82834Z" fill="black"/>
<path d="M1.66671 6C1.48262 6 1.33337 6.14925 1.33337 6.33333V15C1.33337 15.1841 1.48262 15.3333 1.66671 15.3333C1.85079 15.3333 2.00004 15.1841 2.00004 15V6.33333C2.00004 6.14925 1.85079 6 1.66671 6Z" fill="black"/>
<path d="M18.3333 6C18.1492 6 18 6.14925 18 6.33333V15C18 15.1841 18.1492 15.3333 18.3333 15.3333C18.5174 15.3333 18.6667 15.1841 18.6667 15V6.33333C18.6667 6.14925 18.5174 6 18.3333 6Z" fill="black"/>
</svg>
