<svg width="24" height="24" viewBox="0 0 24 24" fill="none" xmlns="http://www.w3.org/2000/svg">
<path d="M21.9037 2.01562H2.12245C1.79775 2.01562 1.49377 2.09545 1.21875 2.22703L11.9662 12.9745L14.3751 10.6595C14.3751 10.6595 14.3753 10.6592 14.3753 10.6591C14.3753 10.659 14.3755 10.659 14.3755 10.659L22.8077 2.22722C22.5327 2.09555 22.2285 2.01562 21.9037 2.01562Z" fill="#43A75F"/>
<path d="M23.7889 4.06543L15.8538 12.0001L23.7886 19.935C23.9202 19.66 24 19.356 24 19.0313V4.9688C24 4.64429 23.9204 4.34035 23.7889 4.06543Z" fill="#43A75F"/>
<path d="M0.211406 4.06519C0.0798281 4.3402 0 4.64419 0 4.96889V19.0314C0 19.3559 0.0797344 19.6599 0.211219 19.9349L8.14636 12.0001L0.211406 4.06519Z" fill="#43A75F"/>
<path d="M14.8594 12.9945L12.4503 15.3098C12.3129 15.4471 12.133 15.5158 11.9531 15.5158C11.7733 15.5158 11.5933 15.4471 11.456 15.3098L9.1406 12.9944L1.20532 20.9291C1.48038 21.0608 1.78456 21.1407 2.10935 21.1407H21.8906C22.2153 21.1407 22.5193 21.0609 22.7943 20.9293L14.8594 12.9945Z" fill="#43A75F"/>
</svg>
